<mxfile host="app.diagrams.net" modified="2022-12-19T05:31:23.786Z" agent="5.0 (Windows)" etag="4n5hFcVvv2wRUdISyRDG" version="20.7.2" type="github">
  <diagram id="tX_K8DnK18EPYIjGrCXY" name="第 1 页">
    <mxGraphModel dx="1034" dy="466" grid="1" gridSize="10" guides="1" tooltips="1" connect="1" arrows="1" fold="1" page="1" pageScale="1" pageWidth="827" pageHeight="1169" math="0" shadow="0">
      <root>
        <mxCell id="0" />
        <mxCell id="1" parent="0" />
        <mxCell id="nGxhTOHd3QBVIAoaaXD4-1" value="考务处理系统" style="rounded=0;whiteSpace=wrap;html=1;" parent="1" vertex="1">
          <mxGeometry x="305" y="90" width="120" height="60" as="geometry" />
        </mxCell>
        <mxCell id="nGxhTOHd3QBVIAoaaXD4-2" value="考试信息检查" style="rounded=0;whiteSpace=wrap;html=1;" parent="1" vertex="1">
          <mxGeometry x="125" y="190" width="120" height="60" as="geometry" />
        </mxCell>
        <mxCell id="nGxhTOHd3QBVIAoaaXD4-3" value="考试信息处理" style="rounded=0;whiteSpace=wrap;html=1;" parent="1" vertex="1">
          <mxGeometry x="305" y="190" width="120" height="60" as="geometry" />
        </mxCell>
        <mxCell id="nGxhTOHd3QBVIAoaaXD4-4" value="考试信息打印" style="rounded=0;whiteSpace=wrap;html=1;" parent="1" vertex="1">
          <mxGeometry x="485" y="190" width="120" height="60" as="geometry" />
        </mxCell>
        <mxCell id="nGxhTOHd3QBVIAoaaXD4-8" value="检测报名单" style="rounded=0;whiteSpace=wrap;html=1;" parent="1" vertex="1">
          <mxGeometry x="83" y="300" width="47" height="80" as="geometry" />
        </mxCell>
        <mxCell id="nGxhTOHd3QBVIAoaaXD4-10" value="审定合格者" style="rounded=0;whiteSpace=wrap;html=1;" parent="1" vertex="1">
          <mxGeometry x="149" y="300" width="49" height="80" as="geometry" />
        </mxCell>
        <mxCell id="nGxhTOHd3QBVIAoaaXD4-14" value="" style="endArrow=none;html=1;rounded=0;exitX=0.5;exitY=0;exitDx=0;exitDy=0;entryX=0.5;entryY=1;entryDx=0;entryDy=0;" parent="1" source="nGxhTOHd3QBVIAoaaXD4-2" target="nGxhTOHd3QBVIAoaaXD4-1" edge="1">
          <mxGeometry width="50" height="50" relative="1" as="geometry">
            <mxPoint x="185" y="160" as="sourcePoint" />
            <mxPoint x="235" y="110" as="targetPoint" />
            <Array as="points">
              <mxPoint x="185" y="170" />
              <mxPoint x="275" y="170" />
              <mxPoint x="365" y="170" />
            </Array>
          </mxGeometry>
        </mxCell>
        <mxCell id="nGxhTOHd3QBVIAoaaXD4-15" value="" style="endArrow=none;html=1;rounded=0;" parent="1" source="nGxhTOHd3QBVIAoaaXD4-3" edge="1">
          <mxGeometry width="50" height="50" relative="1" as="geometry">
            <mxPoint x="315" y="200" as="sourcePoint" />
            <mxPoint x="365" y="150" as="targetPoint" />
          </mxGeometry>
        </mxCell>
        <mxCell id="nGxhTOHd3QBVIAoaaXD4-16" value="" style="endArrow=none;html=1;rounded=0;exitX=0.5;exitY=0;exitDx=0;exitDy=0;entryX=0.5;entryY=1;entryDx=0;entryDy=0;" parent="1" source="nGxhTOHd3QBVIAoaaXD4-4" target="nGxhTOHd3QBVIAoaaXD4-1" edge="1">
          <mxGeometry width="50" height="50" relative="1" as="geometry">
            <mxPoint x="525" y="190" as="sourcePoint" />
            <mxPoint x="575" y="140" as="targetPoint" />
            <Array as="points">
              <mxPoint x="545" y="170" />
              <mxPoint x="455" y="170" />
              <mxPoint x="365" y="170" />
            </Array>
          </mxGeometry>
        </mxCell>
        <mxCell id="nGxhTOHd3QBVIAoaaXD4-17" value="" style="endArrow=none;html=1;rounded=0;exitX=0.5;exitY=0;exitDx=0;exitDy=0;" parent="1" source="nGxhTOHd3QBVIAoaaXD4-8" edge="1">
          <mxGeometry width="50" height="50" relative="1" as="geometry">
            <mxPoint x="135" y="300" as="sourcePoint" />
            <mxPoint x="185" y="250" as="targetPoint" />
          </mxGeometry>
        </mxCell>
        <mxCell id="nGxhTOHd3QBVIAoaaXD4-18" value="" style="endArrow=none;html=1;rounded=0;exitX=0.5;exitY=0;exitDx=0;exitDy=0;" parent="1" source="nGxhTOHd3QBVIAoaaXD4-10" edge="1">
          <mxGeometry width="50" height="50" relative="1" as="geometry">
            <mxPoint x="195" y="310" as="sourcePoint" />
            <mxPoint x="185" y="250" as="targetPoint" />
          </mxGeometry>
        </mxCell>
        <mxCell id="nGxhTOHd3QBVIAoaaXD4-21" value="分析试题难度" style="rounded=0;whiteSpace=wrap;html=1;" parent="1" vertex="1">
          <mxGeometry x="233" y="299" width="48" height="80" as="geometry" />
        </mxCell>
        <mxCell id="nGxhTOHd3QBVIAoaaXD4-22" value="分类统计成绩" style="rounded=0;whiteSpace=wrap;html=1;" parent="1" vertex="1">
          <mxGeometry x="291" y="299" width="43" height="80" as="geometry" />
        </mxCell>
        <mxCell id="nGxhTOHd3QBVIAoaaXD4-23" value="产生考生通知信息" style="rounded=0;whiteSpace=wrap;html=1;" parent="1" vertex="1">
          <mxGeometry x="344" y="299" width="48" height="80" as="geometry" />
        </mxCell>
        <mxCell id="nGxhTOHd3QBVIAoaaXD4-24" value="编准考证号" style="rounded=0;whiteSpace=wrap;html=1;" parent="1" vertex="1">
          <mxGeometry x="404" y="299" width="45" height="81" as="geometry" />
        </mxCell>
        <mxCell id="nGxhTOHd3QBVIAoaaXD4-25" value="打印难度分析表" style="rounded=0;whiteSpace=wrap;html=1;" parent="1" vertex="1">
          <mxGeometry x="469" y="298" width="45" height="81" as="geometry" />
        </mxCell>
        <mxCell id="nGxhTOHd3QBVIAoaaXD4-26" value="" style="endArrow=none;html=1;rounded=0;entryX=0.5;entryY=1;entryDx=0;entryDy=0;exitX=0.5;exitY=0;exitDx=0;exitDy=0;" parent="1" source="nGxhTOHd3QBVIAoaaXD4-21" target="nGxhTOHd3QBVIAoaaXD4-3" edge="1">
          <mxGeometry width="50" height="50" relative="1" as="geometry">
            <mxPoint x="315" y="310" as="sourcePoint" />
            <mxPoint x="365" y="260" as="targetPoint" />
          </mxGeometry>
        </mxCell>
        <mxCell id="nGxhTOHd3QBVIAoaaXD4-27" value="" style="endArrow=none;html=1;rounded=0;entryX=0.5;entryY=1;entryDx=0;entryDy=0;exitX=0.5;exitY=0;exitDx=0;exitDy=0;" parent="1" source="nGxhTOHd3QBVIAoaaXD4-22" target="nGxhTOHd3QBVIAoaaXD4-3" edge="1">
          <mxGeometry width="50" height="50" relative="1" as="geometry">
            <mxPoint x="345" y="300" as="sourcePoint" />
            <mxPoint x="345" y="420" as="targetPoint" />
          </mxGeometry>
        </mxCell>
        <mxCell id="nGxhTOHd3QBVIAoaaXD4-28" value="" style="endArrow=none;html=1;rounded=0;entryX=0.5;entryY=1;entryDx=0;entryDy=0;exitX=0.5;exitY=0;exitDx=0;exitDy=0;" parent="1" source="nGxhTOHd3QBVIAoaaXD4-23" target="nGxhTOHd3QBVIAoaaXD4-3" edge="1">
          <mxGeometry width="50" height="50" relative="1" as="geometry">
            <mxPoint x="355" y="460" as="sourcePoint" />
            <mxPoint x="405" y="410" as="targetPoint" />
          </mxGeometry>
        </mxCell>
        <mxCell id="nGxhTOHd3QBVIAoaaXD4-29" value="" style="endArrow=none;html=1;rounded=0;entryX=0.5;entryY=1;entryDx=0;entryDy=0;exitX=0.5;exitY=0;exitDx=0;exitDy=0;" parent="1" source="nGxhTOHd3QBVIAoaaXD4-24" target="nGxhTOHd3QBVIAoaaXD4-3" edge="1">
          <mxGeometry width="50" height="50" relative="1" as="geometry">
            <mxPoint x="365" y="500" as="sourcePoint" />
            <mxPoint x="415" y="450" as="targetPoint" />
          </mxGeometry>
        </mxCell>
        <mxCell id="nGxhTOHd3QBVIAoaaXD4-30" value="打印分类统计表" style="rounded=0;whiteSpace=wrap;html=1;" parent="1" vertex="1">
          <mxGeometry x="524" y="298" width="45" height="81" as="geometry" />
        </mxCell>
        <mxCell id="nGxhTOHd3QBVIAoaaXD4-31" value="汇总考生" style="rounded=0;whiteSpace=wrap;html=1;" parent="1" vertex="1">
          <mxGeometry x="404" y="414.5" width="45" height="77" as="geometry" />
        </mxCell>
        <mxCell id="nGxhTOHd3QBVIAoaaXD4-32" value="打印考生名单" style="rounded=0;whiteSpace=wrap;html=1;" parent="1" vertex="1">
          <mxGeometry x="633" y="298" width="45" height="81" as="geometry" />
        </mxCell>
        <mxCell id="nGxhTOHd3QBVIAoaaXD4-33" value="打印通知单表" style="rounded=0;whiteSpace=wrap;html=1;" parent="1" vertex="1">
          <mxGeometry x="579" y="298" width="45" height="81" as="geometry" />
        </mxCell>
        <mxCell id="nGxhTOHd3QBVIAoaaXD4-34" value="" style="endArrow=none;html=1;fontFamily=Helvetica;fontSize=11;fontColor=default;align=center;strokeColor=default;exitX=0.5;exitY=0;exitDx=0;exitDy=0;entryX=0.5;entryY=1;entryDx=0;entryDy=0;" parent="1" source="nGxhTOHd3QBVIAoaaXD4-33" target="nGxhTOHd3QBVIAoaaXD4-4" edge="1">
          <mxGeometry width="50" height="50" relative="1" as="geometry">
            <mxPoint x="525" y="320" as="sourcePoint" />
            <mxPoint x="575" y="270" as="targetPoint" />
          </mxGeometry>
        </mxCell>
        <mxCell id="nGxhTOHd3QBVIAoaaXD4-35" value="" style="endArrow=none;html=1;rounded=0;entryX=0.5;entryY=1;entryDx=0;entryDy=0;exitX=0.5;exitY=0;exitDx=0;exitDy=0;" parent="1" source="nGxhTOHd3QBVIAoaaXD4-30" target="nGxhTOHd3QBVIAoaaXD4-4" edge="1">
          <mxGeometry width="50" height="50" relative="1" as="geometry">
            <mxPoint x="475" y="500" as="sourcePoint" />
            <mxPoint x="525" y="450" as="targetPoint" />
          </mxGeometry>
        </mxCell>
        <mxCell id="nGxhTOHd3QBVIAoaaXD4-36" value="" style="endArrow=none;html=1;rounded=0;entryX=0.5;entryY=1;entryDx=0;entryDy=0;exitX=0.5;exitY=0;exitDx=0;exitDy=0;" parent="1" source="nGxhTOHd3QBVIAoaaXD4-25" target="nGxhTOHd3QBVIAoaaXD4-4" edge="1">
          <mxGeometry width="50" height="50" relative="1" as="geometry">
            <mxPoint x="525" y="480" as="sourcePoint" />
            <mxPoint x="575" y="430" as="targetPoint" />
          </mxGeometry>
        </mxCell>
        <mxCell id="nGxhTOHd3QBVIAoaaXD4-37" value="" style="endArrow=none;html=1;rounded=0;entryX=0.5;entryY=1;entryDx=0;entryDy=0;exitX=0.5;exitY=0;exitDx=0;exitDy=0;" parent="1" source="nGxhTOHd3QBVIAoaaXD4-32" target="nGxhTOHd3QBVIAoaaXD4-4" edge="1">
          <mxGeometry width="50" height="50" relative="1" as="geometry">
            <mxPoint x="705" y="260" as="sourcePoint" />
            <mxPoint x="755" y="210" as="targetPoint" />
          </mxGeometry>
        </mxCell>
        <mxCell id="nGxhTOHd3QBVIAoaaXD4-39" value="" style="endArrow=none;html=1;rounded=0;entryX=0.5;entryY=1;entryDx=0;entryDy=0;exitX=0.5;exitY=0;exitDx=0;exitDy=0;" parent="1" source="nGxhTOHd3QBVIAoaaXD4-31" edge="1">
          <mxGeometry width="50" height="50" relative="1" as="geometry">
            <mxPoint x="300" y="470" as="sourcePoint" />
            <mxPoint x="426.5" y="379" as="targetPoint" />
          </mxGeometry>
        </mxCell>
        <mxCell id="nGxhTOHd3QBVIAoaaXD4-41" value="打印准考证" style="rounded=0;whiteSpace=wrap;html=1;" parent="1" vertex="1">
          <mxGeometry x="686" y="298" width="45" height="81" as="geometry" />
        </mxCell>
        <mxCell id="nGxhTOHd3QBVIAoaaXD4-42" value="" style="endArrow=none;html=1;rounded=0;entryX=0.5;entryY=1;entryDx=0;entryDy=0;exitX=0.5;exitY=0;exitDx=0;exitDy=0;" parent="1" source="nGxhTOHd3QBVIAoaaXD4-41" target="nGxhTOHd3QBVIAoaaXD4-4" edge="1">
          <mxGeometry width="50" height="50" relative="1" as="geometry">
            <mxPoint x="510" y="480" as="sourcePoint" />
            <mxPoint x="560" y="430" as="targetPoint" />
          </mxGeometry>
        </mxCell>
        <mxCell id="nGxhTOHd3QBVIAoaaXD4-44" value="输入成绩清单" style="rounded=0;whiteSpace=wrap;html=1;" parent="1" vertex="1">
          <mxGeometry x="149" y="413" width="48" height="80" as="geometry" />
        </mxCell>
        <mxCell id="nGxhTOHd3QBVIAoaaXD4-45" value="输入合格标准" style="rounded=0;whiteSpace=wrap;html=1;" parent="1" vertex="1">
          <mxGeometry x="210" y="413" width="48" height="80" as="geometry" />
        </mxCell>
        <mxCell id="nGxhTOHd3QBVIAoaaXD4-46" value="" style="endArrow=none;html=1;rounded=0;entryX=0.5;entryY=1;entryDx=0;entryDy=0;exitX=0.5;exitY=0;exitDx=0;exitDy=0;" parent="1" source="nGxhTOHd3QBVIAoaaXD4-45" target="nGxhTOHd3QBVIAoaaXD4-10" edge="1">
          <mxGeometry width="50" height="50" relative="1" as="geometry">
            <mxPoint x="230" y="570" as="sourcePoint" />
            <mxPoint x="280" y="520" as="targetPoint" />
          </mxGeometry>
        </mxCell>
        <mxCell id="nGxhTOHd3QBVIAoaaXD4-47" value="" style="endArrow=none;html=1;rounded=0;entryX=0.5;entryY=1;entryDx=0;entryDy=0;exitX=0.5;exitY=0;exitDx=0;exitDy=0;" parent="1" source="nGxhTOHd3QBVIAoaaXD4-44" edge="1">
          <mxGeometry width="50" height="50" relative="1" as="geometry">
            <mxPoint x="173" y="405" as="sourcePoint" />
            <mxPoint x="173" y="380" as="targetPoint" />
          </mxGeometry>
        </mxCell>
        <mxCell id="nGxhTOHd3QBVIAoaaXD4-48" value="输入报名单" style="rounded=0;whiteSpace=wrap;html=1;" parent="1" vertex="1">
          <mxGeometry x="83" y="413" width="48" height="80" as="geometry" />
        </mxCell>
        <mxCell id="nGxhTOHd3QBVIAoaaXD4-49" value="" style="endArrow=none;html=1;rounded=0;entryX=0.5;entryY=1;entryDx=0;entryDy=0;exitX=0.5;exitY=0;exitDx=0;exitDy=0;" parent="1" source="nGxhTOHd3QBVIAoaaXD4-48" target="nGxhTOHd3QBVIAoaaXD4-8" edge="1">
          <mxGeometry width="50" height="50" relative="1" as="geometry">
            <mxPoint x="90" y="590" as="sourcePoint" />
            <mxPoint x="140" y="540" as="targetPoint" />
          </mxGeometry>
        </mxCell>
      </root>
    </mxGraphModel>
  </diagram>
</mxfile>
